HIERARCHY
ROOT Hips
{
	OFFSET -3.958830 18.904000 13.208200
	CHANNELS 6 Xposition Yposition Zposition Zrotation Yrotation Xrotation 
	JOINT LHipJoint
	{
		OFFSET 0.000000 0.000000 0.000000
		CHANNELS 3 Zrotation Yrotation Xrotation
		JOINT LeftUpLeg
		{
			OFFSET 1.800000 -1.400000 0.085000
			CHANNELS 3 Zrotation Yrotation Xrotation
			JOINT LeftLeg
			{
				OFFSET 2.215000 -6.000000 0.000000
				CHANNELS 3 Zrotation Yrotation Xrotation
				JOINT LeftFoot
				{
					OFFSET 2.500000 -6.900000 0.000000
					CHANNELS 3 Zrotation Yrotation Xrotation
					JOINT LeftToeBase
					{
						OFFSET 0.200000 -0.500000 1.950000
						CHANNELS 3 Zrotation Yrotation Xrotation
						End Site
						{
							OFFSET 0.000000 0.000000 0.000000
						}
					}
				}
			}
		}
	}
	JOINT RHipJoint
	{
		OFFSET 0.000000 0.000000 0.000000
		CHANNELS 3 Zrotation Yrotation Xrotation
		JOINT RightUpLeg
		{
			OFFSET -1.800000 -1.400000 0.085000
			CHANNELS 3 Zrotation Yrotation Xrotation
			JOINT RightLeg
			{
				OFFSET -2.215000 -6.000000 0.000000
				CHANNELS 3 Zrotation Yrotation Xrotation
				JOINT RightFoot
				{
					OFFSET -2.500000 -6.900000 0.000000
					CHANNELS 3 Zrotation Yrotation Xrotation
					JOINT RightToeBase
					{
						OFFSET -0.200000 -0.500000 1.950000
						CHANNELS 3 Zrotation Yrotation Xrotation
						End Site
						{
							OFFSET 0.000000 0.000000 0.000000
						}
					}
				}
			}
		}
	}
	JOINT LowerBack
	{
		OFFSET 0.000000 0.000000 0.000000
		CHANNELS 3 Zrotation Yrotation Xrotation
		JOINT Spine
		{
			OFFSET -0.087000 1.940000 -0.288900
			CHANNELS 3 Zrotation Yrotation Xrotation
			JOINT Spine1
			{
				OFFSET 0.000000 1.950000 0.060000
				CHANNELS 3 Zrotation Yrotation Xrotation
				JOINT Neck
				{
					OFFSET 0.000000 0.000000 0.000000
					CHANNELS 3 Zrotation Yrotation Xrotation
					JOINT Neck1
					{
						OFFSET 0.000000 1.600000 0.340000
						CHANNELS 3 Zrotation Yrotation Xrotation
						JOINT Head
						{
							OFFSET 0.000000 1.667000 -0.240000
							CHANNELS 3 Zrotation Yrotation Xrotation
							End Site
							{
								OFFSET 0.000000 0.000000 0.000000
							}
						}
					}
				}
				JOINT LeftShoulder
				{
					OFFSET 0.000000 0.000000 0.000000
					CHANNELS 3 Zrotation Yrotation Xrotation
					JOINT LeftArm
					{
						OFFSET 2.700000 1.550000 -0.730000
						CHANNELS 3 Zrotation Yrotation Xrotation
						JOINT LeftForeArm
						{
							OFFSET 5.450000 0.000000 0.000000
							CHANNELS 3 Zrotation Yrotation Xrotation
							JOINT LeftHand
							{
								OFFSET 3.450000 0.000000 0.000000
								CHANNELS 3 Zrotation Yrotation Xrotation
								JOINT LeftHandIndex1
								{
									OFFSET 0.750000 0.000000 0.000000
									CHANNELS 3 Zrotation Yrotation Xrotation
									End Site
									{
										OFFSET 0.000000 0.000000 0.000000
									}
								}
							}
						}
					}
				}
				JOINT RightShoulder
				{
					OFFSET 0.000000 0.000000 0.000000
					CHANNELS 3 Zrotation Yrotation Xrotation
					JOINT RightArm
					{
						OFFSET -2.700000 1.550000 -0.730000
						CHANNELS 3 Zrotation Yrotation Xrotation
						JOINT RightForeArm
						{
							OFFSET -5.450000 0.000000 0.000000
							CHANNELS 3 Zrotation Yrotation Xrotation
							JOINT RightHand
							{
								OFFSET -3.450000 0.000000 0.000000
								CHANNELS 3 Zrotation Yrotation Xrotation
								JOINT RightHandIndex1
								{
									OFFSET -0.750000 0.000000 0.000000
									CHANNELS 3 Zrotation Yrotation Xrotation
									End Site
									{
										OFFSET 0.000000 0.000000 0.000000
									}
								}
							}
						}
					}
				}
			}
		}
	}
}
MOTION
Frames: 6
Frame Time: 0.016667
0.321130 17.370390 -2.555970 -0.545567 -16.430580 -34.637851 -15.482777 13.656567 3.748271 4.899957 3.811070 29.171110 -8.946735 8.378976 6.335488 -0.390360 9.561746 1.741116 -0.957160 -1.364410 -1.022290 18.069120 -9.379729 3.352426 -0.051842 -2.507285 18.249590 5.228898 -6.947584 1.044838 -1.092975 -6.072415 1.854525 -0.283710 1.988690 0.948810 -2.660908 -4.819023 -7.986758 -0.560155 -2.784226 56.797356 -3.066371 -0.533471 19.467565 -0.804349 -3.189971 -14.074834 -7.574232 1.130000 29.314288 -2.522780 -5.191710 -20.260840 27.822370 -14.960997 4.798178 29.209548 -5.081240 -14.037389 140.834039 40.749632 57.225486 -6.065747 2.984617 1.094470 0.804090 -0.123380 0.198490 -26.097132 18.381314 11.509968 -17.646785 -8.348519 -20.029555 -140.409703 -33.112389 48.174315 2.846980 -1.568402 -1.112850 1.369400 1.564550 0.236870 
0.309220 17.385460 -2.528520 0.524855 -16.085925 -31.785114 -15.699911 13.966509 3.677280 3.463446 4.049875 25.928954 -8.417976 8.104782 6.935652 -0.364855 9.017069 1.907232 -0.758810 -1.028410 -0.947420 17.917250 -9.116699 3.125994 -0.553862 -1.988411 15.284436 4.955257 -6.464255 1.485344 -1.084629 -5.612048 2.020284 -0.172150 1.827420 0.914220 -2.131185 -5.842121 -7.931672 -3.483409 -1.314496 50.398822 -1.661335 -0.144766 25.307356 -0.882721 -4.023369 -12.574086 -8.741506 1.224922 28.492937 -1.488770 -4.872950 -25.022590 25.770221 -15.019505 4.218307 29.332777 -6.058987 -14.174586 138.649692 37.983008 50.207791 -5.906108 3.024285 1.066040 0.694030 0.001540 0.261510 -24.232763 20.215316 10.616259 -20.991457 -4.215435 -19.692443 -138.503791 -28.011915 37.409035 2.754043 -1.609417 -0.967050 1.344500 1.395590 0.276290 
0.301410 17.394850 -2.495410 0.545266 -16.553011 -31.629941 -15.459652 13.467042 3.677072 3.436191 4.018990 26.679481 -8.594457 7.942755 6.061530 -0.116308 8.500507 2.120018 -0.365070 -0.400810 -0.781980 18.130598 -9.652175 3.128416 -1.333841 -2.295176 14.282882 5.323170 -6.294822 2.797140 -1.139120 -5.741947 2.040992 0.098430 1.643700 0.781990 -2.807535 -4.185143 -7.766773 -1.468982 -2.709944 49.264497 -3.653282 0.326663 27.061312 -1.836745 -3.790663 -9.965916 -7.221261 2.019521 26.341911 -1.206310 -3.415940 -21.161640 22.570492 -14.930357 3.187465 31.443346 -7.190869 -14.652436 130.741138 34.374309 40.596752 -5.541759 3.140747 0.771160 0.641310 0.021460 0.458640 -18.805268 19.645919 8.205709 -25.926728 -1.733137 -18.760548 -131.671541 -26.398320 33.778635 2.782529 -1.733189 -0.740070 1.196190 0.951520 0.389930 
0.280260 17.379270 -2.514270 1.818493 -11.929296 -29.196366 -16.161880 14.539275 3.608041 4.384485 4.280992 23.663538 -10.079092 8.001509 4.859734 -0.167914 8.641587 2.062336 -0.236310 -0.360430 -0.549610 17.597140 -8.557724 2.492493 -3.284785 -1.397744 10.934230 6.902101 -6.215784 5.744586 -0.938172 -5.375272 2.048297 0.144720 1.586050 0.857800 -1.113423 -7.813026 -7.790847 -10.017566 1.152279 43.937307 2.286872 0.280764 30.735892 -2.926737 -1.729897 -8.137471 -4.178955 3.568424 22.192487 -3.916470 -0.540420 -18.362950 21.624735 -11.291270 3.162071 26.111764 -10.382871 -13.820384 121.728886 26.197844 19.807179 -5.706407 3.238330 0.702200 0.689820 -0.040000 0.412770 -18.124098 14.979886 5.736053 -20.264663 1.099713 -18.442311 -125.900358 -15.470576 9.748124 2.387212 -2.086781 -0.712370 1.033810 0.892010 0.297180 
0.278440 17.360560 -2.526300 1.946189 -13.145079 -29.157379 -16.124523 14.476274 3.597129 4.430265 4.325448 23.374503 -10.085091 7.978459 4.728196 -0.061414 8.481313 2.150222 -0.268970 -0.337930 -0.613930 17.629739 -8.654143 2.498468 -2.983380 -1.491666 10.584432 6.258007 -6.137527 6.037383 -0.914973 -5.327103 2.134383 0.111230 1.573690 0.827010 -1.183680 -7.551033 -7.756255 -9.332364 0.983418 43.540294 1.068385 0.856335 31.111984 -2.539129 -3.141750 -8.268437 -6.285073 4.255278 21.370246 -4.206880 0.057920 -17.576910 20.508047 -11.250719 3.991484 21.313040 -8.099073 -13.880146 116.193124 16.407288 4.027078 -5.653158 3.168607 0.662560 0.687720 -0.025680 0.444950 -18.127562 15.571891 5.959741 -18.377853 -1.796509 -18.768497 -120.701644 -8.831851 -3.503736 2.392372 -2.137195 -0.677100 1.002780 0.831260 0.343680 
0.281210 17.336080 -2.506290 1.074796 -13.091335 -27.550987 -16.139126 14.566803 3.480981 5.302859 3.979044 21.936043 -8.697045 7.848290 5.890417 -0.037366 8.210843 2.223973 -0.236840 -0.247670 -0.676200 17.620819 -8.652799 2.501067 -2.192988 -1.477778 9.272452 6.392873 -6.067964 6.386809 -0.919212 -5.141231 2.226039 0.107100 1.522080 0.826190 -1.141005 -7.629049 -7.724489 -8.533853 -0.168998 41.210212 0.611481 -0.065385 31.770535 -2.726173 -4.237206 -7.641051 -8.617202 4.782001 22.886711 -2.357460 -0.143750 -18.859560 20.445122 -10.406612 4.164857 18.345237 -9.754091 -13.390117 112.490067 8.126300 -6.166547 -5.495263 3.042005 0.676610 0.625190 0.042150 0.490150 -17.880436 14.623896 4.950036 -19.039638 -0.492609 -18.245249 -116.717420 -3.511798 -10.232690 2.314616 -2.054616 -0.604640 0.972920 0.785630 0.395410 
